<svg
  xmlns="http://www.w3.org/2000/svg"
  viewBox="0 0 116 130"
>
  <defs>
    <linearGradient
      id="g1"
      spreadMethod="pad"
      gradientUnits="userSpaceOnUse"
      x1="42.400001525878906"
      y1="0"
      x2="42.400001525878906"
      y2="93.01000213623047"
    >
      <stop offset="0%" stop-color="rgb(120,158,255)" stop-opacity="1"></stop>
      <stop offset="100%" stop-color="rgb(46,105,255)" stop-opacity="1"></stop>
    </linearGradient>
    <linearGradient
      id="g2"
      spreadMethod="pad"
      gradientUnits="userSpaceOnUse"
      x1="18.860000610351562"
      y1="0.03999999910593033"
      x2="54.41999816894531"
      y2="69.5"
    >
      <stop offset="0%" stop-color="rgb(99,99,99)" stop-opacity="1"></stop>
      <stop offset="100%" stop-color="rgb(38,38,38)" stop-opacity="1"></stop>
    </linearGradient>
    <linearGradient
      id="g3"
      spreadMethod="pad"
      gradientUnits="userSpaceOnUse"
      x1="42.400001525878906"
      y1="0"
      x2="42.400001525878906"
      y2="93.01000213623047"
    >
      <stop offset="0%" stop-color="rgb(120,158,255)" stop-opacity="1"></stop>
      <stop offset="100%" stop-color="rgb(46,105,255)" stop-opacity="1"></stop>
    </linearGradient>
    <linearGradient
      id="g4"
      spreadMethod="pad"
      gradientUnits="userSpaceOnUse"
      x1="18.860000610351562"
      y1="0.03999999910593033"
      x2="54.41999816894531"
      y2="69.5"
    >
      <stop offset="0%" stop-color="rgb(99,99,99)" stop-opacity="1"></stop>
      <stop offset="100%" stop-color="rgb(38,38,38)" stop-opacity="1"></stop>
    </linearGradient>
    <linearGradient
      id="g5"
      spreadMethod="pad"
      gradientUnits="userSpaceOnUse"
      x1="42.400001525878906"
      y1="0"
      x2="42.400001525878906"
      y2="93.01000213623047"
    >
      <stop offset="0%" stop-color="rgb(120,158,255)" stop-opacity="1"></stop>
      <stop offset="100%" stop-color="rgb(46,105,255)" stop-opacity="1"></stop>
    </linearGradient>
    <linearGradient
      id="g6"
      spreadMethod="pad"
      gradientUnits="userSpaceOnUse"
      x1="18.860000610351562"
      y1="0.03999999910593033"
      x2="54.41999816894531"
      y2="69.5"
    >
      <stop offset="0%" stop-color="rgb(99,99,99)" stop-opacity="1"></stop>
      <stop offset="100%" stop-color="rgb(38,38,38)" stop-opacity="1"></stop>
    </linearGradient>
  </defs>
  <g transform="matrix(1.333299994468689,0,0,1.333299994468689,2,3)">
    <g opacity="1">
      <g opacity="1">
        <path
          fill="url(#g1)"
          fill-opacity="1"
          d=" M1.5199999809265137,36.189998626708984 C4.53000020980835,41.40999984741211 11.84000015258789,43.97999954223633 16.920000076293945,41.04999923706055 C22.229999542236328,37.97999954223633 23.100000381469727,30.799999237060547 25.25,27.200000762939453 C27.40999984741211,23.610000610351562 31.25,22.200000762939453 34.7599983215332,21.709999084472656 C38.27000045776367,21.219999313354492 45.43000030517578,24.59000015258789 50.93000030517578,21.40999984741211 C56.099998474121094,18.43000030517578 57.689998626708984,11.3100004196167 54.68000030517578,6.090000152587891 C51.65999984741211,0.8700000047683716 44.36000061035156,-1.7100000381469727 39.27000045776367,1.2300000190734863 C33.959999084472656,4.300000190734863 33.099998474121094,11.5 30.940000534057617,15.09000015258789 C28.790000915527344,18.690000534057617 26.040000915527344,20.979999542236328 21.610000610351562,21.139999389648438 C17.18000030517578,21.309999465942383 10.770000457763672,17.700000762939453 5.269999980926514,20.8700008392334 C0.10999999940395355,23.850000381469727 -1.5,30.969999313354492 1.5199999809265137,36.189998626708984z"
        ></path>
      </g>
      <g opacity="1">
        <path
          fill="url(#g2)"
          fill-opacity="1"
          d=" M1.5199999809265137,36.189998626708984 C4.53000020980835,41.40999984741211 11.84000015258789,43.97999954223633 16.920000076293945,41.04999923706055 C22.229999542236328,37.97999954223633 23.100000381469727,30.799999237060547 25.25,27.200000762939453 C27.40999984741211,23.610000610351562 31.25,22.200000762939453 34.7599983215332,21.709999084472656 C38.27000045776367,21.219999313354492 45.43000030517578,24.59000015258789 50.93000030517578,21.40999984741211 C56.099998474121094,18.43000030517578 57.689998626708984,11.3100004196167 54.68000030517578,6.090000152587891 C51.65999984741211,0.8700000047683716 44.36000061035156,-1.7100000381469727 39.27000045776367,1.2300000190734863 C33.959999084472656,4.300000190734863 33.099998474121094,11.5 30.940000534057617,15.09000015258789 C28.790000915527344,18.690000534057617 26.040000915527344,20.979999542236328 21.610000610351562,21.139999389648438 C17.18000030517578,21.309999465942383 10.770000457763672,17.700000762939453 5.269999980926514,20.8700008392334 C0.10999999940395355,23.850000381469727 -1.5,30.969999313354492 1.5199999809265137,36.189998626708984z"
        ></path>
      </g>
      <g opacity="1">
        <g opacity="1">
          <path
            fill="url(#g3)"
            fill-opacity="1"
            d=" M54.68000030517578,86.91999816894531 C51.66999816894531,92.13999938964844 44.36000061035156,94.72000122070312 39.279998779296875,91.77999877929688 C33.970001220703125,88.70999908447266 33.09000015258789,81.5199966430664 30.940000534057617,77.93000030517578 C28.790000915527344,74.33000183105469 24.940000534057617,72.91999816894531 21.43000030517578,72.43000030517578 C17.920000076293945,71.94999694824219 10.770000457763672,75.30999755859375 5.269999980926514,72.13999938964844 C0.10000000149011612,69.16000366210938 -1.4900000095367432,62.040000915527344 1.5199999809265137,56.81999969482422 C4.539999961853027,51.599998474121094 11.829999923706055,49.029998779296875 16.920000076293945,51.959999084472656 C22.229999542236328,55.029998779296875 23.100000381469727,62.220001220703125 25.260000228881836,65.81999969482422 C27.40999984741211,69.41000366210938 30.15999984741211,71.69999694824219 34.59000015258789,71.87000274658203 C39.02000045776367,72.02999877929688 45.43000030517578,68.41999816894531 50.93000030517578,71.5999984741211 C56.09000015258789,74.58000183105469 57.70000076293945,81.69999694824219 54.68000030517578,86.91999816894531z"
          ></path>
        </g>
        <g opacity="1">
          <path
            fill="url(#g4)"
            fill-opacity="1"
            d=" M54.68000030517578,86.91999816894531 C51.66999816894531,92.13999938964844 44.36000061035156,94.72000122070312 39.279998779296875,91.77999877929688 C33.970001220703125,88.70999908447266 33.09000015258789,81.5199966430664 30.940000534057617,77.93000030517578 C28.790000915527344,74.33000183105469 24.940000534057617,72.91999816894531 21.43000030517578,72.43000030517578 C17.920000076293945,71.94999694824219 10.770000457763672,75.30999755859375 5.269999980926514,72.13999938964844 C0.10000000149011612,69.16000366210938 -1.4900000095367432,62.040000915527344 1.5199999809265137,56.81999969482422 C4.539999961853027,51.599998474121094 11.829999923706055,49.029998779296875 16.920000076293945,51.959999084472656 C22.229999542236328,55.029998779296875 23.100000381469727,62.220001220703125 25.260000228881836,65.81999969482422 C27.40999984741211,69.41000366210938 30.15999984741211,71.69999694824219 34.59000015258789,71.87000274658203 C39.02000045776367,72.02999877929688 45.43000030517578,68.41999816894531 50.93000030517578,71.5999984741211 C56.09000015258789,74.58000183105469 57.70000076293945,81.69999694824219 54.68000030517578,86.91999816894531z"
          ></path>
        </g>
      </g>
      <g opacity="1">
        <path
          fill="url(#g5)"
          fill-opacity="1"
          d=" M72.9000015258789,78.98999786376953 C78.93000030517578,78.98999786376953 84.80999755859375,73.94999694824219 84.80999755859375,68.08000183105469 C84.80999755859375,61.95000076293945 79.0199966430664,57.59000015258789 76.9800033569336,53.93000030517578 C74.94000244140625,50.27000045776367 75.6500015258789,46.2400016784668 76.9800033569336,42.959999084472656 C78.31999969482422,39.66999816894531 84.80999755859375,35.15999984741211 84.80999755859375,28.809999465942383 C84.80999755859375,22.850000381469727 79.44000244140625,17.899999618530273 73.41000366210938,17.899999618530273 C67.38999938964844,17.899999618530273 61.5,22.940000534057617 61.5,28.809999465942383 C61.5,34.95000076293945 67.29000091552734,39.29999923706055 69.33000183105469,42.959999084472656 C71.37000274658203,46.619998931884766 71.9800033569336,50.13999938964844 69.91000366210938,54.060001373291016 C67.83999633789062,57.97999954223633 61.5,61.7400016784668 61.5,68.08000183105469 C61.5,74.04000091552734 66.87000274658203,78.98999786376953 72.9000015258789,78.98999786376953z"
        ></path>
      </g>
      <g opacity="1">
        <path
          fill="url(#g6)"
          fill-opacity="1"
          d=" M72.9000015258789,78.98999786376953 C78.93000030517578,78.98999786376953 84.80999755859375,73.94999694824219 84.80999755859375,68.08000183105469 C84.80999755859375,61.95000076293945 79.0199966430664,57.59000015258789 76.9800033569336,53.93000030517578 C74.94000244140625,50.27000045776367 75.6500015258789,46.2400016784668 76.9800033569336,42.959999084472656 C78.31999969482422,39.66999816894531 84.80999755859375,35.15999984741211 84.80999755859375,28.809999465942383 C84.80999755859375,22.850000381469727 79.44000244140625,17.899999618530273 73.41000366210938,17.899999618530273 C67.38999938964844,17.899999618530273 61.5,22.940000534057617 61.5,28.809999465942383 C61.5,34.95000076293945 67.29000091552734,39.29999923706055 69.33000183105469,42.959999084472656 C71.37000274658203,46.619998931884766 71.9800033569336,50.13999938964844 69.91000366210938,54.060001373291016 C67.83999633789062,57.97999954223633 61.5,61.7400016784668 61.5,68.08000183105469 C61.5,74.04000091552734 66.87000274658203,78.98999786376953 72.9000015258789,78.98999786376953z"
        ></path>
      </g>
    </g>
  </g>
</svg>
