<svg width="142" height="32" viewBox="0 0 142 32" fill="none" xmlns="http://www.w3.org/2000/svg">
<path d="M5.74711 12.7352C6.4407 13.9365 8.12243 14.5287 9.29276 13.853C10.5157 13.1469 10.7157 11.4918 11.2114 10.6642C11.7072 9.83656 12.5916 9.51286 13.3997 9.4008C14.2078 9.28874 15.8558 10.064 17.1206 9.33359C18.3096 8.647 18.6779 7.00746 17.9843 5.80614C17.2907 4.60482 15.609 4.01266 14.4387 4.68834C13.2157 5.39443 13.0157 7.04954 12.52 7.87714C12.0242 8.70475 11.3929 9.2322 10.3726 9.27062C9.35241 9.30905 7.87565 8.47735 6.61082 9.20773C5.42182 9.89432 5.05353 11.5339 5.74711 12.7352Z" fill="black"/>
<path d="M5.74711 12.7352C6.4407 13.9365 8.12243 14.5287 9.29276 13.853C10.5157 13.1469 10.7157 11.4918 11.2114 10.6642C11.7072 9.83656 12.5916 9.51286 13.3997 9.4008C14.2078 9.28874 15.8558 10.064 17.1206 9.33359C18.3096 8.647 18.6779 7.00746 17.9843 5.80614C17.2907 4.60482 15.609 4.01266 14.4387 4.68834C13.2157 5.39443 13.0157 7.04954 12.52 7.87714C12.0242 8.70475 11.3929 9.2322 10.3726 9.27062C9.35241 9.30905 7.87565 8.47735 6.61082 9.20773C5.42182 9.89432 5.05353 11.5339 5.74711 12.7352Z" fill="url(#paint0_linear_56_2361)" fill-opacity="0.44" style="mix-blend-mode:plus-lighter"/>
<path d="M17.9847 24.4117C17.2911 25.613 15.6094 26.2052 14.4391 25.5295C13.2161 24.8234 13.0161 23.1683 12.5204 22.3407C12.0246 21.5131 11.1403 21.1894 10.3322 21.0773C9.52405 20.9653 7.87606 21.7405 6.61123 21.0101C5.42222 20.3235 5.05394 18.684 5.74752 17.4827C6.4411 16.2813 8.12284 15.6892 9.29316 16.3649C10.5161 17.0709 10.7161 18.726 11.2119 19.5537C11.7076 20.3813 12.339 20.9087 13.3592 20.9471C14.3794 20.9856 15.8562 20.1539 17.121 20.8842C18.31 21.5708 18.6783 23.2104 17.9847 24.4117Z" fill="black"/>
<path d="M17.9847 24.4117C17.2911 25.613 15.6094 26.2052 14.4391 25.5295C13.2161 24.8234 13.0161 23.1683 12.5204 22.3407C12.0246 21.5131 11.1403 21.1894 10.3322 21.0773C9.52405 20.9653 7.87606 21.7405 6.61123 21.0101C5.42222 20.3235 5.05394 18.684 5.74752 17.4827C6.4411 16.2813 8.12284 15.6892 9.29316 16.3649C10.5161 17.0709 10.7161 18.726 11.2119 19.5537C11.7076 20.3813 12.339 20.9087 13.3592 20.9471C14.3794 20.9856 15.8562 20.1539 17.121 20.8842C18.31 21.5708 18.6783 23.2104 17.9847 24.4117Z" fill="url(#paint1_linear_56_2361)" fill-opacity="0.44" style="mix-blend-mode:plus-lighter"/>
<path d="M22.1783 22.5863C23.5654 22.5863 24.9191 21.426 24.9191 20.0746C24.9191 18.6624 23.5857 17.6617 23.1169 16.8186C22.648 15.9755 22.8099 15.0477 23.1169 14.2919C23.4239 13.536 24.9193 12.4964 24.9192 11.0358C24.9191 9.66281 23.6833 8.5241 22.2962 8.5241C20.909 8.5241 19.5553 9.68444 19.5553 11.0358C19.5553 12.448 20.8887 13.4487 21.3575 14.2919C21.8264 15.135 21.9675 15.9455 21.4906 16.8482C21.0138 17.751 19.5551 18.6141 19.5553 20.0746C19.5554 21.4476 20.7911 22.5863 22.1783 22.5863Z" fill="black"/>
<path d="M22.1783 22.5863C23.5654 22.5863 24.9191 21.426 24.9191 20.0746C24.9191 18.6624 23.5857 17.6617 23.1169 16.8186C22.648 15.9755 22.8099 15.0477 23.1169 14.2919C23.4239 13.536 24.9193 12.4964 24.9192 11.0358C24.9191 9.66281 23.6833 8.5241 22.2962 8.5241C20.909 8.5241 19.5553 9.68444 19.5553 11.0358C19.5553 12.448 20.8887 13.4487 21.3575 14.2919C21.8264 15.135 21.9675 15.9455 21.4906 16.8482C21.0138 17.751 19.5551 18.6141 19.5553 20.0746C19.5554 21.4476 20.7911 22.5863 22.1783 22.5863Z" fill="url(#paint2_linear_56_2361)" fill-opacity="0.44" style="mix-blend-mode:plus-lighter"/>
<path d="M131.255 22.9576C130.225 22.9576 129.32 22.7034 128.539 22.1948C127.77 21.6863 127.23 21.0041 126.92 20.1483L128.539 19.3855C128.811 19.956 129.184 20.4088 129.655 20.7436C130.139 21.0785 130.672 21.246 131.255 21.246C131.751 21.246 132.154 21.1344 132.464 20.9111C132.774 20.6878 132.929 20.384 132.929 19.9994C132.929 19.7514 132.861 19.5529 132.725 19.4041C132.588 19.2428 132.415 19.1126 132.204 19.0134C132.005 18.9142 131.801 18.8397 131.59 18.7901L130.008 18.3436C129.14 18.0955 128.489 17.7234 128.055 17.2273C127.633 16.7188 127.422 16.1296 127.422 15.4598C127.422 14.8521 127.577 14.3249 127.887 13.8784C128.197 13.4195 128.625 13.066 129.171 12.8179C129.717 12.5698 130.331 12.4458 131.013 12.4458C131.931 12.4458 132.75 12.6753 133.469 13.1342C134.188 13.5807 134.697 14.2071 134.995 15.0133L133.376 15.7761C133.177 15.2924 132.861 14.9079 132.427 14.6226C132.005 14.3373 131.528 14.1947 130.994 14.1947C130.536 14.1947 130.17 14.3063 129.897 14.5296C129.624 14.7404 129.487 15.0195 129.487 15.3668C129.487 15.6025 129.549 15.8009 129.673 15.9622C129.798 16.111 129.959 16.235 130.157 16.3343C130.356 16.4211 130.56 16.4955 130.771 16.5575L132.408 17.0412C133.239 17.2769 133.878 17.649 134.325 18.1575C134.771 18.6537 134.995 19.249 134.995 19.9436C134.995 20.539 134.833 21.0661 134.511 21.5251C134.201 21.9716 133.767 22.3251 133.208 22.5855C132.65 22.8336 131.999 22.9576 131.255 22.9576Z" fill="black"/>
<path d="M131.255 22.9576C130.225 22.9576 129.32 22.7034 128.539 22.1948C127.77 21.6863 127.23 21.0041 126.92 20.1483L128.539 19.3855C128.811 19.956 129.184 20.4088 129.655 20.7436C130.139 21.0785 130.672 21.246 131.255 21.246C131.751 21.246 132.154 21.1344 132.464 20.9111C132.774 20.6878 132.929 20.384 132.929 19.9994C132.929 19.7514 132.861 19.5529 132.725 19.4041C132.588 19.2428 132.415 19.1126 132.204 19.0134C132.005 18.9142 131.801 18.8397 131.59 18.7901L130.008 18.3436C129.14 18.0955 128.489 17.7234 128.055 17.2273C127.633 16.7188 127.422 16.1296 127.422 15.4598C127.422 14.8521 127.577 14.3249 127.887 13.8784C128.197 13.4195 128.625 13.066 129.171 12.8179C129.717 12.5698 130.331 12.4458 131.013 12.4458C131.931 12.4458 132.75 12.6753 133.469 13.1342C134.188 13.5807 134.697 14.2071 134.995 15.0133L133.376 15.7761C133.177 15.2924 132.861 14.9079 132.427 14.6226C132.005 14.3373 131.528 14.1947 130.994 14.1947C130.536 14.1947 130.17 14.3063 129.897 14.5296C129.624 14.7404 129.487 15.0195 129.487 15.3668C129.487 15.6025 129.549 15.8009 129.673 15.9622C129.798 16.111 129.959 16.235 130.157 16.3343C130.356 16.4211 130.56 16.4955 130.771 16.5575L132.408 17.0412C133.239 17.2769 133.878 17.649 134.325 18.1575C134.771 18.6537 134.995 19.249 134.995 19.9436C134.995 20.539 134.833 21.0661 134.511 21.5251C134.201 21.9716 133.767 22.3251 133.208 22.5855C132.65 22.8336 131.999 22.9576 131.255 22.9576Z" fill="url(#paint3_linear_56_2361)" fill-opacity="0.44" style="mix-blend-mode:plus-lighter"/>
<path d="M121.564 22.9572C120.783 22.9572 120.07 22.7959 119.425 22.4734C118.792 22.151 118.302 21.6858 117.955 21.0781L118.197 20.6874V22.7339H116.188V8.6499H118.29V14.7524L117.955 14.2686C118.327 13.6981 118.823 13.2515 119.443 12.9291C120.064 12.6066 120.771 12.4453 121.564 12.4453C122.519 12.4453 123.375 12.6748 124.132 13.1337C124.901 13.5926 125.502 14.219 125.937 15.0128C126.383 15.8066 126.606 16.6997 126.606 17.692C126.606 18.6842 126.383 19.5773 125.937 20.3711C125.502 21.1649 124.907 21.7975 124.15 22.2688C123.394 22.7277 122.532 22.9572 121.564 22.9572ZM121.36 21.0036C121.955 21.0036 122.482 20.861 122.941 20.5757C123.4 20.2905 123.76 19.8998 124.02 19.4036C124.293 18.8951 124.43 18.3245 124.43 17.692C124.43 17.0594 124.293 16.495 124.02 15.9989C123.76 15.5028 123.4 15.1121 122.941 14.8268C122.482 14.5415 121.955 14.3989 121.36 14.3989C120.777 14.3989 120.25 14.5415 119.778 14.8268C119.319 15.1121 118.953 15.5028 118.681 15.9989C118.42 16.495 118.29 17.0594 118.29 17.692C118.29 18.3245 118.42 18.8951 118.681 19.4036C118.953 19.8998 119.319 20.2905 119.778 20.5757C120.25 20.861 120.777 21.0036 121.36 21.0036Z" fill="black"/>
<path d="M121.564 22.9572C120.783 22.9572 120.07 22.7959 119.425 22.4734C118.792 22.151 118.302 21.6858 117.955 21.0781L118.197 20.6874V22.7339H116.188V8.6499H118.29V14.7524L117.955 14.2686C118.327 13.6981 118.823 13.2515 119.443 12.9291C120.064 12.6066 120.771 12.4453 121.564 12.4453C122.519 12.4453 123.375 12.6748 124.132 13.1337C124.901 13.5926 125.502 14.219 125.937 15.0128C126.383 15.8066 126.606 16.6997 126.606 17.692C126.606 18.6842 126.383 19.5773 125.937 20.3711C125.502 21.1649 124.907 21.7975 124.15 22.2688C123.394 22.7277 122.532 22.9572 121.564 22.9572ZM121.36 21.0036C121.955 21.0036 122.482 20.861 122.941 20.5757C123.4 20.2905 123.76 19.8998 124.02 19.4036C124.293 18.8951 124.43 18.3245 124.43 17.692C124.43 17.0594 124.293 16.495 124.02 15.9989C123.76 15.5028 123.4 15.1121 122.941 14.8268C122.482 14.5415 121.955 14.3989 121.36 14.3989C120.777 14.3989 120.25 14.5415 119.778 14.8268C119.319 15.1121 118.953 15.5028 118.681 15.9989C118.42 16.495 118.29 17.0594 118.29 17.692C118.29 18.3245 118.42 18.8951 118.681 19.4036C118.953 19.8998 119.319 20.2905 119.778 20.5757C120.25 20.861 120.777 21.0036 121.36 21.0036Z" fill="url(#paint4_linear_56_2361)" fill-opacity="0.44" style="mix-blend-mode:plus-lighter"/>
<path d="M109.56 22.9576C108.878 22.9576 108.276 22.8398 107.755 22.6042C107.247 22.3561 106.85 22.0212 106.565 21.5995C106.279 21.1654 106.137 20.6568 106.137 20.0739C106.137 19.5281 106.255 19.0382 106.49 18.6041C106.738 18.17 107.117 17.8041 107.625 17.5064C108.134 17.2087 108.772 16.9978 109.541 16.8738L113.039 16.297V17.9529L109.951 18.4924C109.393 18.5917 108.983 18.7715 108.723 19.032C108.462 19.2801 108.332 19.6025 108.332 19.9994C108.332 20.384 108.475 20.7002 108.76 20.9483C109.058 21.184 109.436 21.3018 109.895 21.3018C110.465 21.3018 110.962 21.1778 111.383 20.9297C111.817 20.6816 112.152 20.3529 112.388 19.9436C112.624 19.5219 112.742 19.0568 112.742 18.5483V15.9622C112.742 15.466 112.555 15.0629 112.183 14.7528C111.824 14.4303 111.34 14.2691 110.732 14.2691C110.174 14.2691 109.684 14.4179 109.262 14.7156C108.853 15.0009 108.549 15.373 108.351 15.8319L106.602 14.9575C106.788 14.4613 107.092 14.0272 107.513 13.6551C107.935 13.2706 108.425 12.9729 108.983 12.7621C109.554 12.5512 110.155 12.4458 110.788 12.4458C111.582 12.4458 112.283 12.5946 112.89 12.8923C113.511 13.19 113.988 13.6055 114.323 14.1389C114.67 14.6598 114.844 15.2676 114.844 15.9622V22.7344H112.835V20.9111L113.262 20.9669C113.027 21.3762 112.723 21.7297 112.351 22.0274C111.991 22.3251 111.576 22.5545 111.104 22.7158C110.645 22.877 110.131 22.9576 109.56 22.9576Z" fill="black"/>
<path d="M109.56 22.9576C108.878 22.9576 108.276 22.8398 107.755 22.6042C107.247 22.3561 106.85 22.0212 106.565 21.5995C106.279 21.1654 106.137 20.6568 106.137 20.0739C106.137 19.5281 106.255 19.0382 106.49 18.6041C106.738 18.17 107.117 17.8041 107.625 17.5064C108.134 17.2087 108.772 16.9978 109.541 16.8738L113.039 16.297V17.9529L109.951 18.4924C109.393 18.5917 108.983 18.7715 108.723 19.032C108.462 19.2801 108.332 19.6025 108.332 19.9994C108.332 20.384 108.475 20.7002 108.76 20.9483C109.058 21.184 109.436 21.3018 109.895 21.3018C110.465 21.3018 110.962 21.1778 111.383 20.9297C111.817 20.6816 112.152 20.3529 112.388 19.9436C112.624 19.5219 112.742 19.0568 112.742 18.5483V15.9622C112.742 15.466 112.555 15.0629 112.183 14.7528C111.824 14.4303 111.34 14.2691 110.732 14.2691C110.174 14.2691 109.684 14.4179 109.262 14.7156C108.853 15.0009 108.549 15.373 108.351 15.8319L106.602 14.9575C106.788 14.4613 107.092 14.0272 107.513 13.6551C107.935 13.2706 108.425 12.9729 108.983 12.7621C109.554 12.5512 110.155 12.4458 110.788 12.4458C111.582 12.4458 112.283 12.5946 112.89 12.8923C113.511 13.19 113.988 13.6055 114.323 14.1389C114.67 14.6598 114.844 15.2676 114.844 15.9622V22.7344H112.835V20.9111L113.262 20.9669C113.027 21.3762 112.723 21.7297 112.351 22.0274C111.991 22.3251 111.576 22.5545 111.104 22.7158C110.645 22.877 110.131 22.9576 109.56 22.9576Z" fill="url(#paint5_linear_56_2361)" fill-opacity="0.44" style="mix-blend-mode:plus-lighter"/>
<path d="M96.7207 22.7343V8.87354H98.9161V20.7808H104.907V22.7343H96.7207Z" fill="black"/>
<path d="M96.7207 22.7343V8.87354H98.9161V20.7808H104.907V22.7343H96.7207Z" fill="url(#paint6_linear_56_2361)" fill-opacity="0.44" style="mix-blend-mode:plus-lighter"/>
<path d="M87.0816 22.9576C86.1142 22.9576 85.2273 22.7282 84.4211 22.2693C83.6273 21.8103 82.9947 21.184 82.5234 20.3902C82.0521 19.5963 81.8164 18.6971 81.8164 17.6924C81.8164 16.6753 82.0521 15.7761 82.5234 14.9947C82.9947 14.2009 83.6273 13.5807 84.4211 13.1342C85.2149 12.6753 86.1018 12.4458 87.0816 12.4458C88.0739 12.4458 88.9607 12.6753 89.7422 13.1342C90.536 13.5807 91.1623 14.2009 91.6213 14.9947C92.0926 15.7761 92.3283 16.6753 92.3283 17.6924C92.3283 18.7095 92.0926 19.6149 91.6213 20.4088C91.1499 21.2026 90.5174 21.8289 89.7235 22.2879C88.9297 22.7344 88.0491 22.9576 87.0816 22.9576ZM87.0816 21.0041C87.677 21.0041 88.2041 20.8615 88.6631 20.5762C89.122 20.2909 89.4817 19.9002 89.7422 19.4041C90.015 18.8955 90.1515 18.325 90.1515 17.6924C90.1515 17.0599 90.015 16.4955 89.7422 15.9994C89.4817 15.5032 89.122 15.1125 88.6631 14.8272C88.2041 14.542 87.677 14.3993 87.0816 14.3993C86.4987 14.3993 85.9715 14.542 85.5002 14.8272C85.0413 15.1125 84.6754 15.5032 84.4025 15.9994C84.142 16.4955 84.0118 17.0599 84.0118 17.6924C84.0118 18.325 84.142 18.8955 84.4025 19.4041C84.6754 19.9002 85.0413 20.2909 85.5002 20.5762C85.9715 20.8615 86.4987 21.0041 87.0816 21.0041Z" fill="black"/>
<path d="M87.0816 22.9576C86.1142 22.9576 85.2273 22.7282 84.4211 22.2693C83.6273 21.8103 82.9947 21.184 82.5234 20.3902C82.0521 19.5963 81.8164 18.6971 81.8164 17.6924C81.8164 16.6753 82.0521 15.7761 82.5234 14.9947C82.9947 14.2009 83.6273 13.5807 84.4211 13.1342C85.2149 12.6753 86.1018 12.4458 87.0816 12.4458C88.0739 12.4458 88.9607 12.6753 89.7422 13.1342C90.536 13.5807 91.1623 14.2009 91.6213 14.9947C92.0926 15.7761 92.3283 16.6753 92.3283 17.6924C92.3283 18.7095 92.0926 19.6149 91.6213 20.4088C91.1499 21.2026 90.5174 21.8289 89.7235 22.2879C88.9297 22.7344 88.0491 22.9576 87.0816 22.9576ZM87.0816 21.0041C87.677 21.0041 88.2041 20.8615 88.6631 20.5762C89.122 20.2909 89.4817 19.9002 89.7422 19.4041C90.015 18.8955 90.1515 18.325 90.1515 17.6924C90.1515 17.0599 90.015 16.4955 89.7422 15.9994C89.4817 15.5032 89.122 15.1125 88.6631 14.8272C88.2041 14.542 87.677 14.3993 87.0816 14.3993C86.4987 14.3993 85.9715 14.542 85.5002 14.8272C85.0413 15.1125 84.6754 15.5032 84.4025 15.9994C84.142 16.4955 84.0118 17.0599 84.0118 17.6924C84.0118 18.325 84.142 18.8955 84.4025 19.4041C84.6754 19.9002 85.0413 20.2909 85.5002 20.5762C85.9715 20.8615 86.4987 21.0041 87.0816 21.0041Z" fill="url(#paint7_linear_56_2361)" fill-opacity="0.44" style="mix-blend-mode:plus-lighter"/>
<path d="M78.7812 22.7343V12.669H80.8836V22.7343H78.7812ZM78.7812 11.2922V8.87354H80.8836V11.2922H78.7812Z" fill="black"/>
<path d="M78.7812 22.7343V12.669H80.8836V22.7343H78.7812ZM78.7812 11.2922V8.87354H80.8836V11.2922H78.7812Z" fill="url(#paint8_linear_56_2361)" fill-opacity="0.44" style="mix-blend-mode:plus-lighter"/>
<path d="M68.9961 22.7339V8.6499H71.0985V14.6407L70.7636 14.3803C71.0116 13.7477 71.4085 13.2702 71.9543 12.9477C72.5 12.6128 73.1326 12.4453 73.852 12.4453C74.5962 12.4453 75.2536 12.6066 75.8241 12.9291C76.3947 13.2515 76.8412 13.6981 77.1637 14.2686C77.4862 14.8392 77.6474 15.4904 77.6474 16.2222V22.7339H75.5637V16.7989C75.5637 16.2904 75.4644 15.8625 75.266 15.5152C75.0799 15.1555 74.8195 14.8826 74.4846 14.6965C74.1497 14.4981 73.7652 14.3989 73.3311 14.3989C72.9094 14.3989 72.5249 14.4981 72.1776 14.6965C71.8427 14.8826 71.576 15.1555 71.3775 15.5152C71.1915 15.8749 71.0985 16.3028 71.0985 16.7989V22.7339H68.9961Z" fill="black"/>
<path d="M68.9961 22.7339V8.6499H71.0985V14.6407L70.7636 14.3803C71.0116 13.7477 71.4085 13.2702 71.9543 12.9477C72.5 12.6128 73.1326 12.4453 73.852 12.4453C74.5962 12.4453 75.2536 12.6066 75.8241 12.9291C76.3947 13.2515 76.8412 13.6981 77.1637 14.2686C77.4862 14.8392 77.6474 15.4904 77.6474 16.2222V22.7339H75.5637V16.7989C75.5637 16.2904 75.4644 15.8625 75.266 15.5152C75.0799 15.1555 74.8195 14.8826 74.4846 14.6965C74.1497 14.4981 73.7652 14.3989 73.3311 14.3989C72.9094 14.3989 72.5249 14.4981 72.1776 14.6965C71.8427 14.8826 71.576 15.1555 71.3775 15.5152C71.1915 15.8749 71.0985 16.3028 71.0985 16.7989V22.7339H68.9961Z" fill="url(#paint9_linear_56_2361)" fill-opacity="0.44" style="mix-blend-mode:plus-lighter"/>
<path d="M66.9259 22.8458C65.8716 22.8458 65.053 22.5481 64.47 21.9528C63.8871 21.3574 63.5956 20.5202 63.5956 19.4411V14.5666H61.8281V12.6688H62.1072C62.5785 12.6688 62.9444 12.5324 63.2049 12.2595C63.4654 11.9867 63.5956 11.6146 63.5956 11.1432V10.3618H65.698V12.6688H67.9864V14.5666H65.698V19.3481C65.698 19.6953 65.7538 19.993 65.8654 20.2411C65.9771 20.4768 66.1569 20.6628 66.405 20.7992C66.653 20.9233 66.9755 20.9853 67.3724 20.9853C67.4717 20.9853 67.5833 20.9791 67.7073 20.9667C67.8314 20.9543 67.9492 20.9419 68.0608 20.9295V22.7342C67.8872 22.759 67.6949 22.7838 67.4841 22.8086C67.2732 22.8334 67.0872 22.8458 66.9259 22.8458Z" fill="black"/>
<path d="M66.9259 22.8458C65.8716 22.8458 65.053 22.5481 64.47 21.9528C63.8871 21.3574 63.5956 20.5202 63.5956 19.4411V14.5666H61.8281V12.6688H62.1072C62.5785 12.6688 62.9444 12.5324 63.2049 12.2595C63.4654 11.9867 63.5956 11.6146 63.5956 11.1432V10.3618H65.698V12.6688H67.9864V14.5666H65.698V19.3481C65.698 19.6953 65.7538 19.993 65.8654 20.2411C65.9771 20.4768 66.1569 20.6628 66.405 20.7992C66.653 20.9233 66.9755 20.9853 67.3724 20.9853C67.4717 20.9853 67.5833 20.9791 67.7073 20.9667C67.8314 20.9543 67.9492 20.9419 68.0608 20.9295V22.7342C67.8872 22.759 67.6949 22.7838 67.4841 22.8086C67.2732 22.8334 67.0872 22.8458 66.9259 22.8458Z" fill="url(#paint10_linear_56_2361)" fill-opacity="0.44" style="mix-blend-mode:plus-lighter"/>
<path d="M52.7891 22.7344V12.6691H54.7984V14.6412L54.5565 14.3807C54.8046 13.7482 55.2015 13.2706 55.7473 12.9481C56.293 12.6132 56.9256 12.4458 57.645 12.4458C58.3892 12.4458 59.0466 12.607 59.6171 12.9295C60.1877 13.252 60.6342 13.6985 60.9567 14.2691C61.2792 14.8396 61.4404 15.497 61.4404 16.2412V22.7344H59.3566V16.7994C59.3566 16.2908 59.2636 15.8629 59.0776 15.5156C58.8915 15.1559 58.6248 14.8831 58.2775 14.697C57.9427 14.4986 57.5582 14.3993 57.124 14.3993C56.6899 14.3993 56.2992 14.4986 55.9519 14.697C55.617 14.8831 55.3566 15.1559 55.1705 15.5156C54.9845 15.8753 54.8914 16.3032 54.8914 16.7994V22.7344H52.7891Z" fill="black"/>
<path d="M52.7891 22.7344V12.6691H54.7984V14.6412L54.5565 14.3807C54.8046 13.7482 55.2015 13.2706 55.7473 12.9481C56.293 12.6132 56.9256 12.4458 57.645 12.4458C58.3892 12.4458 59.0466 12.607 59.6171 12.9295C60.1877 13.252 60.6342 13.6985 60.9567 14.2691C61.2792 14.8396 61.4404 15.497 61.4404 16.2412V22.7344H59.3566V16.7994C59.3566 16.2908 59.2636 15.8629 59.0776 15.5156C58.8915 15.1559 58.6248 14.8831 58.2775 14.697C57.9427 14.4986 57.5582 14.3993 57.124 14.3993C56.6899 14.3993 56.2992 14.4986 55.9519 14.697C55.617 14.8831 55.3566 15.1559 55.1705 15.5156C54.9845 15.8753 54.8914 16.3032 54.8914 16.7994V22.7344H52.7891Z" fill="url(#paint11_linear_56_2361)" fill-opacity="0.44" style="mix-blend-mode:plus-lighter"/>
<path d="M44.2054 26.8269C43.9573 26.8269 43.7092 26.8021 43.4612 26.7525C43.2255 26.7153 43.0085 26.6532 42.81 26.5664V24.7617C42.9588 24.7989 43.1387 24.83 43.3495 24.8548C43.5604 24.892 43.7651 24.9106 43.9635 24.9106C44.5465 24.9106 44.9744 24.7803 45.2473 24.5199C45.5325 24.2718 45.7868 23.8873 46.0101 23.3664L46.6799 21.8407L46.6426 23.6082L42.2891 12.6685H44.5403L47.7589 21.0593H46.9961L50.1962 12.6685H52.466L48.0194 23.8315C47.7838 24.4268 47.4861 24.9478 47.1264 25.3943C46.7791 25.8532 46.3636 26.2067 45.8798 26.4548C45.4085 26.7029 44.8504 26.8269 44.2054 26.8269Z" fill="black"/>
<path d="M44.2054 26.8269C43.9573 26.8269 43.7092 26.8021 43.4612 26.7525C43.2255 26.7153 43.0085 26.6532 42.81 26.5664V24.7617C42.9588 24.7989 43.1387 24.83 43.3495 24.8548C43.5604 24.892 43.7651 24.9106 43.9635 24.9106C44.5465 24.9106 44.9744 24.7803 45.2473 24.5199C45.5325 24.2718 45.7868 23.8873 46.0101 23.3664L46.6799 21.8407L46.6426 23.6082L42.2891 12.6685H44.5403L47.7589 21.0593H46.9961L50.1962 12.6685H52.466L48.0194 23.8315C47.7838 24.4268 47.4861 24.9478 47.1264 25.3943C46.7791 25.8532 46.3636 26.2067 45.8798 26.4548C45.4085 26.7029 44.8504 26.8269 44.2054 26.8269Z" fill="url(#paint12_linear_56_2361)" fill-opacity="0.44" style="mix-blend-mode:plus-lighter"/>
<path d="M37.4425 22.9572C36.5743 22.9572 35.7681 22.7959 35.0239 22.4734C34.2797 22.1386 33.6471 21.6858 33.1262 21.1153C32.6052 20.5447 32.2207 19.8873 31.9727 19.1431L33.8332 18.3617C34.1681 19.2176 34.658 19.8749 35.303 20.3339C35.9479 20.7928 36.6921 21.0223 37.5356 21.0223C38.0317 21.0223 38.4658 20.9478 38.8379 20.799C39.21 20.6378 39.4953 20.4145 39.6937 20.1292C39.9046 19.8439 40.01 19.5152 40.01 19.1431C40.01 18.6346 39.8674 18.2315 39.5821 17.9338C39.2968 17.6361 38.8751 17.4005 38.317 17.2268L35.7123 16.4082C34.6704 16.0857 33.8766 15.5958 33.3308 14.9384C32.7851 14.2686 32.5122 13.4872 32.5122 12.5942C32.5122 11.8128 32.7045 11.1306 33.089 10.5476C33.4735 9.95226 34.0006 9.48713 34.6704 9.15224C35.3526 8.81735 36.1278 8.6499 36.996 8.6499C37.827 8.6499 38.5836 8.79874 39.2658 9.09642C39.948 9.3817 40.531 9.77861 41.0147 10.2871C41.5108 10.7957 41.8705 11.3848 42.0938 12.0546L40.2705 12.8546C39.9976 12.1228 39.5697 11.5585 38.9868 11.1616C38.4162 10.7647 37.7526 10.5662 36.996 10.5662C36.5371 10.5662 36.134 10.6468 35.7867 10.8081C35.4394 10.9569 35.1665 11.1802 34.9681 11.4779C34.782 11.7631 34.689 12.098 34.689 12.4825C34.689 12.9291 34.8316 13.326 35.1169 13.6733C35.4022 14.0206 35.8363 14.281 36.4193 14.4547L38.8379 15.2175C39.9418 15.5524 40.7728 16.0361 41.331 16.6687C41.8891 17.2888 42.1682 18.0641 42.1682 18.9943C42.1682 19.7633 41.9636 20.4455 41.5543 21.0409C41.1573 21.6362 40.6054 22.1075 39.8984 22.4548C39.1914 22.7897 38.3728 22.9572 37.4425 22.9572Z" fill="black"/>
<path d="M37.4425 22.9572C36.5743 22.9572 35.7681 22.7959 35.0239 22.4734C34.2797 22.1386 33.6471 21.6858 33.1262 21.1153C32.6052 20.5447 32.2207 19.8873 31.9727 19.1431L33.8332 18.3617C34.1681 19.2176 34.658 19.8749 35.303 20.3339C35.9479 20.7928 36.6921 21.0223 37.5356 21.0223C38.0317 21.0223 38.4658 20.9478 38.8379 20.799C39.21 20.6378 39.4953 20.4145 39.6937 20.1292C39.9046 19.8439 40.01 19.5152 40.01 19.1431C40.01 18.6346 39.8674 18.2315 39.5821 17.9338C39.2968 17.6361 38.8751 17.4005 38.317 17.2268L35.7123 16.4082C34.6704 16.0857 33.8766 15.5958 33.3308 14.9384C32.7851 14.2686 32.5122 13.4872 32.5122 12.5942C32.5122 11.8128 32.7045 11.1306 33.089 10.5476C33.4735 9.95226 34.0006 9.48713 34.6704 9.15224C35.3526 8.81735 36.1278 8.6499 36.996 8.6499C37.827 8.6499 38.5836 8.79874 39.2658 9.09642C39.948 9.3817 40.531 9.77861 41.0147 10.2871C41.5108 10.7957 41.8705 11.3848 42.0938 12.0546L40.2705 12.8546C39.9976 12.1228 39.5697 11.5585 38.9868 11.1616C38.4162 10.7647 37.7526 10.5662 36.996 10.5662C36.5371 10.5662 36.134 10.6468 35.7867 10.8081C35.4394 10.9569 35.1665 11.1802 34.9681 11.4779C34.782 11.7631 34.689 12.098 34.689 12.4825C34.689 12.9291 34.8316 13.326 35.1169 13.6733C35.4022 14.0206 35.8363 14.281 36.4193 14.4547L38.8379 15.2175C39.9418 15.5524 40.7728 16.0361 41.331 16.6687C41.8891 17.2888 42.1682 18.0641 42.1682 18.9943C42.1682 19.7633 41.9636 20.4455 41.5543 21.0409C41.1573 21.6362 40.6054 22.1075 39.8984 22.4548C39.1914 22.7897 38.3728 22.9572 37.4425 22.9572Z" fill="url(#paint13_linear_56_2361)" fill-opacity="0.44" style="mix-blend-mode:plus-lighter"/>
<defs>
<linearGradient id="paint0_linear_56_2361" x1="15.1588" y1="25.8135" x2="15.1588" y2="4.4043" gradientUnits="userSpaceOnUse">
<stop stop-color="#000C2F" stop-opacity="0"/>
<stop offset="1" stop-color="#000C2F"/>
</linearGradient>
<linearGradient id="paint1_linear_56_2361" x1="15.1588" y1="25.8135" x2="15.1588" y2="4.4043" gradientUnits="userSpaceOnUse">
<stop stop-color="#000C2F" stop-opacity="0"/>
<stop offset="1" stop-color="#000C2F"/>
</linearGradient>
<linearGradient id="paint2_linear_56_2361" x1="15.1588" y1="25.8135" x2="15.1588" y2="4.4043" gradientUnits="userSpaceOnUse">
<stop stop-color="#000C2F" stop-opacity="0"/>
<stop offset="1" stop-color="#000C2F"/>
</linearGradient>
<linearGradient id="paint3_linear_56_2361" x1="83.7174" y1="22.7344" x2="83.7174" y2="8.76191" gradientUnits="userSpaceOnUse">
<stop stop-color="#000C2F" stop-opacity="0"/>
<stop offset="1" stop-color="#000C2F"/>
</linearGradient>
<linearGradient id="paint4_linear_56_2361" x1="83.7186" y1="22.7339" x2="83.7186" y2="8.76144" gradientUnits="userSpaceOnUse">
<stop stop-color="#000C2F" stop-opacity="0"/>
<stop offset="1" stop-color="#000C2F"/>
</linearGradient>
<linearGradient id="paint5_linear_56_2361" x1="83.7169" y1="22.7344" x2="83.7169" y2="8.76191" gradientUnits="userSpaceOnUse">
<stop stop-color="#000C2F" stop-opacity="0"/>
<stop offset="1" stop-color="#000C2F"/>
</linearGradient>
<linearGradient id="paint6_linear_56_2361" x1="83.7162" y1="22.7343" x2="83.7162" y2="8.76181" gradientUnits="userSpaceOnUse">
<stop stop-color="#000C2F" stop-opacity="0"/>
<stop offset="1" stop-color="#000C2F"/>
</linearGradient>
<linearGradient id="paint7_linear_56_2361" x1="83.7169" y1="22.7344" x2="83.7169" y2="8.76191" gradientUnits="userSpaceOnUse">
<stop stop-color="#000C2F" stop-opacity="0"/>
<stop offset="1" stop-color="#000C2F"/>
</linearGradient>
<linearGradient id="paint8_linear_56_2361" x1="83.7165" y1="22.7343" x2="83.7165" y2="8.76181" gradientUnits="userSpaceOnUse">
<stop stop-color="#000C2F" stop-opacity="0"/>
<stop offset="1" stop-color="#000C2F"/>
</linearGradient>
<linearGradient id="paint9_linear_56_2361" x1="83.7164" y1="22.7339" x2="83.7164" y2="8.76144" gradientUnits="userSpaceOnUse">
<stop stop-color="#000C2F" stop-opacity="0"/>
<stop offset="1" stop-color="#000C2F"/>
</linearGradient>
<linearGradient id="paint10_linear_56_2361" x1="83.7165" y1="22.7342" x2="83.7165" y2="8.76169" gradientUnits="userSpaceOnUse">
<stop stop-color="#000C2F" stop-opacity="0"/>
<stop offset="1" stop-color="#000C2F"/>
</linearGradient>
<linearGradient id="paint11_linear_56_2361" x1="83.7183" y1="22.7344" x2="83.7183" y2="8.76191" gradientUnits="userSpaceOnUse">
<stop stop-color="#000C2F" stop-opacity="0"/>
<stop offset="1" stop-color="#000C2F"/>
</linearGradient>
<linearGradient id="paint12_linear_56_2361" x1="83.7178" y1="22.7338" x2="83.7178" y2="8.7613" gradientUnits="userSpaceOnUse">
<stop stop-color="#000C2F" stop-opacity="0"/>
<stop offset="1" stop-color="#000C2F"/>
</linearGradient>
<linearGradient id="paint13_linear_56_2361" x1="83.7172" y1="22.7339" x2="83.7172" y2="8.76144" gradientUnits="userSpaceOnUse">
<stop stop-color="#000C2F" stop-opacity="0"/>
<stop offset="1" stop-color="#000C2F"/>
</linearGradient>
</defs>
</svg>
